<?xml version="1.0" encoding="utf-8"?>
<!-- Generator: Adobe Illustrator 18.1.0, SVG Export Plug-In . SVG Version: 6.00 Build 0)  -->
<svg version="1.1" id="Layer_1" xmlns="http://www.w3.org/2000/svg" xmlns:xlink="http://www.w3.org/1999/xlink" x="0px" y="0px"
	 viewBox="0 0 99.4 106.5" enable-background="new 0 0 99.4 106.5" xml:space="preserve">
<g>
	<path d="M52.8,6.7l0.1,0.2c-0.3,2.1-0.6,4.3-0.7,6.6l0.3,0.2c0.9,0,1.8,0.3,2.6,0.2c0.6-2.2,0.9-4.4,1.3-6.6
		c3.1,0.5,6.1,1.1,8.8,2.4c-0.8,2.1-1.7,4.2-2.2,6.5l2.5,1l0.3-0.3l2.8-5.9c2.6,1,5,2.4,7.4,4c-1.4,2.2-2.7,4.3-4.2,6.4
		c-0.4,0.1-0.8-0.8-1.2-0.2l-1.8,2.9c0.2,0.3,0.6,0.4,0.8,0.7c-0.3,0.6-0.8,1.1-1,1.7l0.1,0.2c12.6,9.1,18.7,23.6,15.4,39
		c-2.2,9.7-8.6,19-17.6,24.1C59,94.2,49.1,96,40.1,94c-8-1.8-15.5-5.6-20.9-12.6c-7.3-9-10.8-21-7.6-33c2.3-9.2,8.4-17.8,16.9-23.1
		c-0.2-0.6-0.6-1.2-0.8-1.8l0.7-0.5c-0.4-1.2-1.2-2.3-1.9-3.4c-0.3,0-0.6,0.4-1,0.4l-3.8-6.5c1.4-1.1,3-1.7,4.5-2.5
		c1.2-0.4,2.3-1.1,3.4-1.3l2.5,6.3l0.2,0.1c0.6-0.3,1.3-0.4,1.9-0.8c-0.5-2.3-1.4-4.3-2-6.5c2.7-0.8,5.5-1.5,8.5-1.9
		c0.3,2.2,0.6,4.5,1.1,6.7l0.1,0.1l2.3-0.2c0.1-2.3-0.2-4.7-0.3-6.9C46.9,6.3,49.9,6.4,52.8,6.7z"/>
	<path fill="#BCA64D" d="M52.1,7.2c0,2.1-0.3,4-0.5,6.1c-2.2,0.1-4.3-0.3-6.5,0l-0.2,0c-0.2-2-0.4-4.1-0.4-6.1
		C47,6.8,49.7,6.9,52.1,7.2z"/>
	<path fill="#BCA64D" d="M40.1,7.6c0.5,2,0.6,4,1,6C39,14,36.9,14.4,35,15.1L34.8,15c-0.6-1.9-1.3-3.8-1.7-5.8
		C35.3,8.4,37.7,7.9,40.1,7.6z"/>
	<path fill="#BCA64D" d="M64.3,9.8l0.1,0.3l-1.9,5.6c-1.4-0.3-2.9-0.8-4.4-1.2L55.8,14c0.1-1.9,0.6-3.8,1-5.7l0.2-0.3
		C59.6,8.1,61.9,9,64.3,9.8z"/>
	<path fill="#BCA64D" d="M29.3,10.5c0.8,1.9,1.6,3.8,2.2,5.7C29.6,17,27.6,18,25.8,19l-0.5-0.5c-0.9-1.6-2-3.1-2.7-4.8
		C24.6,12.3,26.9,11.2,29.3,10.5z"/>
	<path fill="#BCA64D" d="M75.1,15.1c0,0.4-0.3,0.9-0.6,1.2l-2.8,4c-1.8-1-3.6-2-5.4-2.9l0-0.4l2.5-5.3
		C71.1,12.7,73.1,13.6,75.1,15.1z"/>
	<path fill="#BCA64D" d="M50.5,14.2c0,1.3-0.1,2.6-0.3,3.8h-3.6l-0.2-0.3l-0.1-3.6C47.7,14,49.2,14,50.5,14.2z"/>
	<path fill="#BCA64D" d="M45.7,14.1c0.2,1.3,0.1,2.5,0.2,3.8c-1.4,0.2-2.9,0.3-4.3,0.5c-0.3-1.2-0.6-2.6-0.6-3.9
		C42.4,14.3,44,14.1,45.7,14.1z"/>
	<path fill="#BCA64D" d="M56.3,15c-0.1,1.3-0.4,2.5-0.7,3.7l-0.3,0.1c-1.4-0.3-2.9-0.5-4.3-0.6c-0.1-1.2,0.1-2.6,0.3-3.8l0.1-0.1
		C53.1,14.3,54.7,14.7,56.3,15z"/>
	<path fill="#BCA64D" d="M40.1,14.7c0.3,1.2,0.5,2.5,0.7,3.8c-1.1,0.3-2.3,0.6-3.5,0.8l-1-3.5l0-0.3C37.5,15.2,38.8,14.9,40.1,14.7z
		"/>
	<path fill="#BCA64D" d="M60.9,16.2c-0.2,1.2-0.7,2.4-1.1,3.6c-1.2-0.2-2.4-0.5-3.5-0.9c0.2-1.3,0.4-2.5,0.8-3.7
		C58.4,15.4,59.7,15.8,60.9,16.2z"/>
	<path fill="#BCA64D" d="M35.6,15.8c0.4,1.2,0.7,2.4,1,3.6l-3.7,1.3c-0.6-1.1-1-2.3-1.4-3.5C32.7,16.6,34.2,16.2,35.6,15.8z"/>
	<path fill="#BCA64D" d="M66.1,18.3c-0.3,1.2-1,2.3-1.6,3.4l-4-1.5l-0.1-0.3c0.4-1.1,0.7-2.3,1.2-3.4C63.2,16.9,64.7,17.6,66.1,18.3
		z"/>
	<path fill="#BCA64D" d="M30.7,17.6c0.5,1.2,1.1,2.3,1.4,3.6L29,22.6c-0.8-1-1.4-2.2-1.9-3.4C28.3,18.6,29.5,18,30.7,17.6z"/>
	<path fill="#BCA64D" d="M68.6,24.9c0,0.4-0.4,0.8-0.7,1.1c-8.7-5.6-21-7.8-31.5-4.3c-2.5,0.8-4.9,1.9-7.2,3.1
		c-0.3-0.3-0.5-0.7-0.7-1.1c9.2-5.7,22.9-6.7,33.2-2.5C64,22.4,66.5,23.3,68.6,24.9z"/>
	<path fill="#BCA64D" d="M70.1,20.4l0,0.3c-0.6,1-1.2,2-1.9,2.9l-2.8-1.5c0.5-1.2,1-2.4,1.8-3.4C68.1,19.2,69.1,19.7,70.1,20.4z"/>
	<path fill="#BCA64D" d="M79.6,39.7c5.3,9,6.3,22.5,1.8,32.1C76.6,83.9,64.3,92.9,51.3,94c-9.7,0.8-18.4-2-25.8-7.3
		c-6-4.8-10.3-11.3-12.6-18.2c-4.4-13.7-0.3-28.4,9.9-38c9.9-9.8,26.8-12.5,39.4-6.6C69.3,26.8,75.9,32.8,79.6,39.7z"/>
	<path d="M80.2,41.9c3.8,7.7,4.8,18.4,1.8,26.8c-2.9,8.8-9.7,17.4-18.3,21.3c-8.8,4.5-20.9,4.9-30,0.8c-4.9-1.9-9.7-5.3-13.1-9.6
		c-7-8.4-10.5-19.3-8.3-30.7c2-12.1,11.9-23.6,23.7-27.4c5.2-1.8,11.6-2.5,17.4-1.4C64.5,23.2,75.3,31.4,80.2,41.9z"/>
	<path fill="#BCA64D" d="M46.6,22.1c-0.3,0.3-1.3-0.3-1.1,0.5c0.1,0.5-0.1,1.1,0.2,1.6c0.3,0,0.8-0.1,1,0.1c0,0-0.1,0.1,0,0.2
		c-0.3,0.2-0.8-0.1-1,0.3l0.1,1.9c0.3,0.3,1.2-0.3,1.1,0.5c-0.5,0.2-1.1,0.1-1.6,0.2L45,27.1c-0.1-1.7-0.3-3.4-0.3-5.2
		c0.6-0.2,1.3-0.2,1.9-0.1V22.1z"/>
	<path fill="#C9C7B2" d="M49.2,21.9c0,0.3-0.2,1.1,0.4,0.9c0.6-0.1,0.7,0.4,0.6,0.9l-0.4,3.6c-0.8,0.1-1.6,0-2.4,0
		c-0.1-0.3,0.1-0.8-0.3-0.9c-0.3,0.1-0.6,0.1-0.9,0c-0.1-0.3-0.1-0.8-0.1-1.1c0.3-0.3,1.2,0.2,1-0.5L47,23.7c-0.3-0.1-0.9,0.2-1-0.3
		v-0.7c0.4-0.2,1.1,0.1,1.3-0.4c-0.1-0.2-0.1-0.4,0-0.6L49.2,21.9z"/>
	<path fill="#BCA64D" d="M52.7,22.2c0.1,0.3-0.1,0.3-0.3,0.3c-0.3,0-0.5-0.1-0.7-0.1l-0.2,0.5l-0.4,4.4l-0.7,0l0.3-5
		c-0.3-0.1-0.8,0-0.9-0.3l0-0.2C50.8,21.9,51.8,21.9,52.7,22.2z"/>
	<path fill="#C9C7B2" d="M44,22c0.3,1.7,0.3,3.6,0.3,5.3c-2.2,0.5-4.5,0.8-6.6,1.6c-0.3-1.3-1.2,0.2-1.8-0.4
		c0.4-0.7,0.7-1.6,0.4-2.5c-0.1-0.8-0.9-1.5-1.7-1.6c0,0-0.1,0-0.1,0c2.8-1.3,5.9-1.9,9.1-2.4L44,22z"/>
	<path fill="#C9C7B2" d="M61.8,24.7c-1.2,0.4-2.6,1.6-2.7,3.1c-0.1,0.7,0.2,1.2,0.3,1.8c-2.5-0.8-5.1-1.8-7.8-2.1
		c0-1.5,0.3-2.9,0.4-4.4c0.3-0.1,0.7,0.1,1,0c0.1-0.3,0.1-0.7,0.3-0.8C56.3,22.7,59.2,23.5,61.8,24.7z"/>
	<path d="M41.8,24.2c0.5,0.5,0.4,1.3,0.2,1.8c-0.3,0.4-0.7,0.7-1.2,0.7c-0.5,0.1-0.8-0.2-1.2-0.4c-0.4-0.4-0.5-0.9-0.4-1.5
		c0.1-0.6,0.7-1,1.2-1.1C41,23.7,41.4,23.9,41.8,24.2z"/>
	<path d="M57.2,25.2c0.2,0.5,0.1,1.1-0.2,1.5c-0.3,0.4-0.8,0.6-1.3,0.6c-0.5-0.1-1-0.3-1.2-0.8c-0.2-0.3-0.3-0.9-0.1-1.3
		c0.2-0.5,0.7-0.8,1.2-0.9C56.3,24.2,56.9,24.6,57.2,25.2z"/>
	<path fill="#BCA64D" d="M41.4,24.6c0.2,0.3,0.3,0.8,0.1,1.2c-0.3,0.4-0.8,0.5-1.3,0.4c-0.4-0.2-0.6-0.7-0.5-1.1
		c0-0.3,0.3-0.7,0.6-0.8C40.7,24.2,41.1,24.4,41.4,24.6z"/>
	<path fill="#BCA64D" d="M35.6,25.5c0.3,0.5,0.5,1.2,0.3,1.8c0,0.5-0.7,0.8-0.6,1.4c0.5,0.3,1.2,0.5,1.8,0.2l0.1,0.1
		c-0.2,0.2-0.5,0.4-0.8,0.4c-0.5,0-1-0.3-1.4-0.3c-0.1,0.3,0.2,0.6,0.2,0.9c-0.3,0-0.4,0.3-0.7,0.2c-0.8-1.6-1.6-3.2-2.2-4.8
		C33.2,24.5,35,24.3,35.6,25.5z"/>
	<path fill="#BCA64D" d="M56.6,25.1c0.3,0.3,0.3,0.7,0.2,1.1c-0.3,0.6-1,0.8-1.5,0.5c-0.4-0.3-0.5-0.9-0.3-1.4
		c0.1-0.3,0.4-0.5,0.6-0.5C56,24.7,56.4,24.7,56.6,25.1z"/>
	<path d="M35,25.3c0.4,0.4,0.6,0.9,0.6,1.4c0,0.7-0.5,1.4-1.1,1.6c-0.5-0.9-1-2-1.4-3C33.6,24.9,34.5,24.8,35,25.3z"/>
	<path fill="#BCA64D" d="M64.1,25.8l0.6,1c-0.4,0.1-0.6-0.6-0.8-0.8c-0.6-0.4-1.6-0.5-2.3-0.1c-0.7,0.5-1.2,1.2-1.3,2
		c0,0.6,0,1.2,0.3,1.7c0.5,0.7,1.4,0.7,2.2,0.7c0.1,0.1,0.3,0.4,0,0.4c-1,0.1-1.9-0.2-2.6-0.8c-0.7-0.5-0.6-1.5-0.5-2.3
		c0.1-1.1,1-1.9,2.1-2.3C62.6,25.1,63.5,25.3,64.1,25.8z"/>
	<path fill="#C9C7B2" d="M35,25.8c0.3,0.4,0.3,1,0.1,1.5l-0.4,0.4c-0.4-0.6-0.7-1.4-1-2.1c0-0.2,0.2-0.2,0.3-0.3
		C34.5,25.2,34.7,25.7,35,25.8z"/>
	<path fill="#C9C7B2" d="M31.7,25.6c0.8,1.6,1.6,3.1,2.3,4.8c-0.5,0.1-1,0.9-1.4,0.4c-0.2-0.2-0.2-0.4-0.4-0.5l-1,0.6
		c-0.2-0.3-0.8-0.7-0.5-1.1c0.2-0.2,0.5-0.3,0.7-0.4c-0.3-0.3-0.5-0.7-0.8-1.1c-0.4,0.1-1.1,0.8-1.3-0.1c-0.2-0.8,1.8-0.8,0.7-1.7
		C30.4,26.1,31,25.8,31.7,25.6z"/>
	<path fill="#C9C7B2" d="M64.1,26.8c0.1,0.2,0.2,0.6,0.5,0.6l0.8-0.3l-0.2-0.7c1.4,0.7,2.8,1.7,4.2,2.7c-1.4-0.1-2.9,0.2-3.6,1.6
		c-0.5,0.7-0.3,1.6-0.2,2.4c-1-0.7-2.1-1.4-3-2l0.9-0.1c0-0.4,0-0.8-0.2-1.2c-0.6,0.1-1.4,0.2-1.9-0.1c-0.4-0.4-0.6-0.9-0.6-1.5
		c0-0.9,0.7-1.7,1.5-2C63.2,26,63.7,26.4,64.1,26.8z"/>
	<path fill="#BCA64D" d="M29.5,27.2c-0.2,0.4-1.1,0.5-0.9,1l0.9,1.3c0.4,0.1,0.9-0.7,1-0.1c-0.2,0.2-0.5,0.3-0.7,0.5
		c0.3,0.6,0.7,1.3,1.2,1.8c0.4,0,0.7-0.8,1.1-0.3v0.2l-1.5,0.9c-1.1-1.4-2.1-2.9-3-4.4c0.5-0.5,1.1-1,1.8-1.1L29.5,27.2z"/>
	<path fill="#BCA64D" d="M74.9,45.7c3.5,7.4,3.3,18.1-0.7,25.2c-5.3,10.5-16.3,17-28.2,16.3C35.2,86.7,25,79.5,20.7,69.5
		c-4.8-10-2.8-23.3,4.5-31.5c7.6-9.1,20.1-12.5,31.6-8.8C64.5,31.6,71.8,38.1,74.9,45.7z"/>
	<path d="M74.8,46.8c4.2,10.1,1.9,22.6-5.6,30.5c-7.3,7.8-18.1,11.4-28.8,8.6c-9.8-2.3-18.6-11.3-21-20.9
		c-3.1-11.8,1.3-24.1,11.2-31.3c8.1-6.4,21.7-7.2,30.7-2.1C67.3,34.8,72.4,40.5,74.8,46.8z"/>
	<path fill="#C9C7B2" d="M27,28.6c1,1.4,2.1,2.9,2.9,4.4l-1.8,1.4L25.3,31c0.1-0.4,0.9-0.6,0.7-1.1c-0.2-0.2-0.5-0.4-0.3-0.6
		l1.1-0.8L27,28.6z"/>
	<path fill="#0054A6" d="M46.6,28.8c-2,0.4-3.9,1.9-4.8,3.9c-1,2.3-0.6,5.1,0.8,7c0.6,0.6,1.1,1.2,1.7,1.6L44,41.5l-3.3,0.7
		c-0.8,0.6-0.9,1.7-1.1,2.6l-0.5,3.7L38.2,50l-5.3,0.3c1.9-1.8,3-4.4,2.1-7.1c-0.6-2.3-2.7-3.9-4.9-4.5c-1.6-0.3-3.8,0-5.5,1.7
		c0.9-1.2,2.5-2.9,3.4-3.8c2.6-2.5,5.7-4.5,8.9-5.7L35.2,34c-1,0.4-2.2,0.1-3.3,0.3c-0.2,0.2,0.1,0.3,0.2,0.5l2.2,2
		c-0.3,1.1-0.8,2.3-1.1,3.4l0.1,0.1l3.4-1.6c1.1,0.6,2.1,1.4,3.2,2l0.1-0.2l-1.2-3.6c0.8-0.9,1.5-1.8,2.4-2.7L41.1,34
		c-1,0.1-2,0-2.9,0.1c-0.4-1-0.8-2-1.1-3.1c-0.1,0-0.1-0.1-0.2-0.1C39.9,29.5,43.1,28.8,46.6,28.8z"/>
	<path fill="#0054A6" d="M72.5,43.1c2.6,4.4,4,9.5,3.9,14.9c-0.6-0.8-1-2.1-1.6-3c-0.4,0.1-0.3,0.6-0.5,0.9
		c-1.4-1.2-2.8-2.4-4.2-3.8c0.2-1-0.7-1.9-1.4-2.4l-0.6-3.2c0.2-1.1,0.9-2,1-3.1c0.1-1.2-0.1-2.5-1-3.3c-0.4-0.4-1.3-0.1-1.3-0.7
		c0.2-0.5,0.9-0.8,0.7-1.5c-0.5-0.3-0.9,0.3-1.4,0.3c-0.6,0.1-1.1-0.1-1.6-0.1c-0.2,0.2-0.2,0.5,0,0.6c0.4,0.2,0.6,0.8,1.1,0.8
		c0.4,0.6-0.8,0.8-0.8,1.4c-0.5-0.5-1.5,0.5-1.3-0.6c0.2-0.4,0.5-0.8,0.3-1.3c-0.5-0.5-0.7,0.5-1.1,0.6c-0.4,0.5-1.9-0.1-1.5,0.9
		c0.3,0.6,1.5,0.2,1.2,1c-0.3,0.2-0.4,0.5-0.5,0.8c-0.7-0.3-1.3,0.8-1.8,0.2c-0.2-0.6,0.2-1.5-0.6-1.6c-0.3,0.5-0.5,1.1-1.1,1.3
		c-0.3,0.2-0.8,0-0.9,0.5c0.3,0.9,1.5,0.3,2,1.1c-0.4,1.1,0.1,2,0.8,2.8c1.1,1.3,2.6,1.7,4.3,1.8c0.6,0.7,1.3,1.1,1.9,1.8
		c-0.1,0.4-0.6,0.5-0.9,0.8c-2.9-0.3-6.1-0.2-8.9-0.2l-0.2-0.4c-0.3-2.4-0.3-4.8-0.8-7.1l-0.2-0.4c-1.6-0.5-3.1-1-4.7-1.4
		c2.2-1.2,3.4-3.5,3.7-5.8c0.6,0.3,0.9,1,1.4,1.5l-1.6,3.1l0.1,0.1l3.7-0.8c0.9,0.7,1.7,1.5,2.7,2.1c0.1-0.9-0.2-2-0.3-3
		c-0.4-0.8,0.5-0.9,0.8-1.4c0.6-0.6,1.3-1.1,1.9-1.8l-0.1-0.2L60,35.4c-0.5-0.9-0.8-2-1-3.1l-0.3,0l-1.5,2.8c-0.8,0.3-1.7,0-2.6,0.1
		c-0.3-2-1-3.9-2.8-5.2c-0.8-0.8-1.9-1-2.9-1.3C58.6,29.1,67.6,34.8,72.5,43.1z"/>
	<path fill="#BCA64D" d="M53.4,32.8c0.8,1.6,0.7,4-0.2,5.5c-0.6,1.4-2,2.4-3.5,2.8c-0.1-0.8-0.2-1.5,0-2.4c0.3-0.2,0.9-0.2,1.1-0.7
		c-0.1-1.6-0.2-3.3-0.6-4.7c-0.6-0.9-1.5-1.6-2.7-1.5c-1,0.2-2.1,0.8-2.5,1.9c-0.4,1.4-0.5,2.9-0.5,4.5c0.3,0.2,0.7,0.2,1,0.3
		c0.2,0.8,0,1.6,0,2.5c-2.2-0.9-3.6-3.2-3.6-5.6c0-2.2,1.3-4.3,3.2-5.4c1.7-0.9,4.3-0.9,6,0.2C52,30.9,52.8,31.7,53.4,32.8z"/>
	<path fill="#C9C7B2" d="M35.9,29.5c0,0.1-0.2,0.2-0.3,0.1v-0.2C35.7,29.5,35.8,29.5,35.9,29.5z"/>
	<path fill="#BCA64D" d="M71.3,31c0.4,1.1,0.4,2.5-0.4,3.3c-0.6,0.5-1.4,0.9-2.3,0.8c-1.1-0.1-2.1-1-2.6-2c-0.3-1.1,0.1-2.3,1-3
		c0.7-0.6,1.7-0.8,2.6-0.5C70.3,29.9,70.9,30.3,71.3,31z"/>
	<path fill="#BCA64D" d="M25.2,30c0,0.2-0.1,0.3-0.3,0.3l-0.4,0.6l3.2,3.8l-0.5,0.4c-1.2-1.1-2.3-2.5-3.4-3.6
		c-0.3,0.2-0.7,0.5-0.9,0.8l-0.2-0.2c0.7-0.9,1.6-1.7,2.5-2.3L25.2,30z"/>
	<path d="M70.9,31.5c0.1,0.9-0.4,1.6-1,2.3c-0.7,0.5-1.5,1.1-2.4,0.6c-0.6-0.4-1-1-1.1-1.7c0.1-1.2,1.2-2.3,2.3-2.6
		c0.5,0,1-0.2,1.3,0.2C70.5,30.5,70.8,30.9,70.9,31.5z"/>
	<path fill="#C9C7B2" d="M70,30.7c0.3,0.3,0.6,0.8,0.6,1.3c-0.2,1-1.1,2-2.1,2.2c-0.6,0-1.1-0.2-1.4-0.7c-0.3-0.6,0-1.4,0.3-2
		C68.1,30.8,69.1,29.9,70,30.7z"/>
	<path fill="#C9C7B2" d="M74.5,34.1v0.1l-4,3.4l-0.3-0.1l-1.7-2c1,0.2,1.9-0.2,2.6-0.8c0.8-0.8,1.2-2,0.9-3.2
		C72.8,32.2,73.7,33.2,74.5,34.1z"/>
	<path fill="#BCA64D" d="M37.9,34.6h2.3c-0.5,0.7-1.2,1.4-1.8,2.1c0.1,0.9,0.4,1.8,0.6,2.7c-0.8-0.3-1.5-1-2.3-1.4l-2.5,1.3
		c0.1-0.9,0.6-1.7,0.8-2.6c-0.6-0.6-1.3-1.2-1.9-1.8c0.8-0.2,1.7-0.1,2.5-0.2c0.6-0.8,0.7-1.7,1.3-2.5
		C37.3,32.8,37.5,33.7,37.9,34.6z"/>
	<path fill="#C9C7B2" d="M26.7,35.6c-0.3,0.6-1,1.2-1.5,1.7c-1.4-0.8-2.7-2.2-4-3.3c0.1-0.5,0.5-1,1-1.3c0.3,0,0.5,0.8,0.9,0.2
		c0.3-0.2,0.6-0.7,0.9-0.4L26.7,35.6z"/>
	<path fill="#C9C7B2" d="M49.8,33.8c0.4,1.3,0.4,2.7,0.4,4.2c-0.2,0-0.4,0.3-0.5,0l0.1-2.9c-0.7-0.8-1.9,0-2.8-0.4
		c-0.4-0.1-1.1-0.3-1.2,0.3c-0.2,0.9-0.1,2-0.2,3c-0.2,0.1-0.4,0-0.4-0.2c0.3-1.9-0.4-4.5,1.9-5.2C48.1,32.4,49.1,33,49.8,33.8z"/>
	<path fill="#BCA64D" d="M58.9,33.8c0.3,0.7,0.5,1.5,0.9,2.2c0.7-0.1,1.4-0.1,2.1,0.1L60,38l0.4,2.7c-0.7-0.4-1.4-1-2.1-1.6
		l-2.7,0.7l-0.1-0.1l1.2-2.2L55.4,36l0.2-0.2l1.9,0.1l1.2-2.1L58.9,33.8z"/>
	<path fill="#BCA64D" d="M24.5,37.6c0.2,0.2,0,0.4-0.2,0.5l-0.1,0.1c-1.4-1.1-2.7-2.2-4.1-3.4c0.1-0.3,0.4-0.8,0.7-0.3L24.5,37.6z"
		/>
	<path fill="#BCA64D" d="M74.8,34.8c0,2.3-0.3,4.8-0.5,7.1l0.1,0.1c1.4-0.8,2.7-1.6,4.1-2.2l0,0.1c-1.4,1-3,1.9-4.6,2.7
		c-0.7-0.8-0.2-2-0.3-3c0.1-1.2,0.3-2.5,0.3-3.7l-0.2,0l-2.8,2.3L70.8,38C72.1,36.9,73.4,35.9,74.8,34.8z"/>
	<path fill="#FFEAB5" d="M47,35.3c0,0.2-0.2,0.1-0.3,0.1c-0.2,0-0.2,0-0.3-0.1C46.3,34.9,47,35,47,35.3z"/>
	<path fill="#FFEAB5" d="M49.3,35.3c-0.2,0.1-0.5,0.1-0.6,0c0-0.2,0.3-0.2,0.4-0.3C49.2,35.1,49.3,35.2,49.3,35.3z"/>
	<path fill="#C9C7B2" d="M78.1,39.1c-0.9,0.7-2,1.3-3.1,1.8c0-1.9,0.2-3.8,0.5-5.6C76.5,36.4,77.4,37.7,78.1,39.1z"/>
	<path fill="#C9C7B2" d="M23.8,38.8l-1,1.6c-1.5-0.8-3-1.9-4.4-2.9c0.3-0.8,0.9-1.5,1.5-2.1C21.2,36.4,22.6,37.5,23.8,38.8z"/>
	<path fill="#FFEAB5" d="M48.1,35.4c-0.1,0.8-0.3,1.6-0.3,2.4l-0.1,0c-0.1-0.8-0.1-1.7,0-2.4L48.1,35.4z"/>
	<path fill="#FFEAB5" d="M47.1,36.3c0.3,0.6-0.3,1.7,0.6,2c0.9-0.2,0.4-1.3,0.7-1.9l0.8,0.1c0,0.9,0.5,2.4-0.6,3
		c-0.5,0.4-1.2,0.2-1.7,0.1c-1.5-0.4-0.5-2.2-0.7-3.2C46.5,36.2,46.8,36.4,47.1,36.3z"/>
	<path fill="#C9C7B2" d="M73.4,37c0,1.4-0.2,2.8-0.3,4.2c-0.6-0.7-1.2-1.6-1.8-2.4v-0.2C72,38,72.6,37.4,73.4,37z"/>
	<path fill="#BCA64D" d="M22.3,40.8c0,0.3-0.2,0.5-0.3,0.7c-0.9-0.4-1.6-1.2-2.5-1.4l-0.1,0.1l1.2,3.4l-0.4,0.3
		c-1.2,0.5-2.4,0.8-3.5,1.3c0.8,0.5,1.9,0.9,2.8,1.3c0,0.1,0,0.3-0.2,0.3l-4.2-1.8l0.3-0.3l4.4-1.5l0.1-0.2
		c-0.6-1.6-1.3-3.2-1.7-4.9C19.6,38.9,21,39.9,22.3,40.8z"/>
	<path fill="#C9C7B2" d="M19.2,42.9c-1.5,0.5-3,1.2-4.5,1.6c0.7-2.1,1.7-4.1,3-6C18.3,39.9,18.8,41.4,19.2,42.9z"/>
	<path d="M48.3,38.7c-0.3,0.3-1,0.2-1.4,0c0.3-0.3,0.9-0.2,1.4-0.2L48.3,38.7z"/>
	<path fill="#C9C7B2" d="M66.8,38.7c-0.2,0.3-0.7,0.3-0.6,0.8l0.2,0.9c-0.2-0.6-0.3-1.3-0.9-1.4c0.3-0.1,0.9-0.2,1.3-0.3
		C66.7,38.6,66.9,38.6,66.8,38.7z"/>
	<path fill="#C9C7B2" d="M33.7,42c1.2,1.8,1.1,4.5,0,6.2c-1.1,1.7-3.1,2.7-5.2,2.6c-0.6-0.5-0.2-1.9-1.4-1.8
		c-0.5,0.1-0.8-0.5-1.4-0.3c-0.3,0.3-0.3,0.6-0.3,1c-1.8-1.4-2.8-3.6-2.3-5.9c0.3-2.1,2.4-4.2,4.4-4.6C30.1,39,32.5,39.9,33.7,42z"
		/>
	<path fill="#FFEAB5" d="M49.1,39.8c0.3,0.8-0.3,2.2,0.8,2.5c0.2-0.1,0.3,0.1,0.4,0.1c-0.9,0.6-2.4,0.6-3.5,0.5
		c-0.2-0.4-0.7-0.6-1.1-0.6c-0.4,0.2-0.8,0.1-1.1-0.3c0.2-0.4,0.8,0,1.1-0.3c0.4-0.4,0.2-1.3,0.3-1.9C47,40.2,48.3,40.4,49.1,39.8z"
		/>
	<path fill="#C9C7B2" d="M63,40.5c1.6,3.2,3.2,6.4,4.9,9.6c0,0.1,0,0.2-0.1,0.2c-0.8-1-1.2-2.4-1.9-3.5l-3-5.9
		c-0.2-0.3-0.5-0.1-0.6-0.3c0.3-0.1,0.6-0.3,0.9-0.3L63,40.5z"/>
	<path fill="#C9C7B2" d="M68.5,42.7c0,0.9-0.2,1.7-0.6,2.5l-0.1,0c-0.3-1.6-0.7-3.1-0.8-4.7C68.1,40.5,68.3,41.8,68.5,42.7z"/>
	<path fill="#C9C7B2" d="M78.9,40.5c0.4,0.8,0.9,1.6,1.2,2.5c-0.6-0.1-1.4-0.1-1.8,0.5c-0.7,0.8-0.6,2.1-1.4,2.9
		c-0.2,0-0.5-0.1-0.5-0.3l0.1-1c-0.3-0.2-0.8-0.3-1.2-0.3L75.2,45c-0.4-0.5-0.7-1.2-1-1.8c1.4-1.2,3-1.8,4.5-2.7L78.9,40.5z"/>
	<path fill="#C9C7B2" d="M68,49c-0.7-2.7-1.1-5.5-1.6-8.3l1.6,7.7V49z"/>
	<path fill="#C9C7B2" d="M66.8,45.4c-0.7,0-0.8-0.8-1.2-1.3c-0.5-1-0.6-2.5,0.2-3.4l0.2,0.2L66.8,45.4z"/>
	<path fill="#C9C7B2" d="M21.7,42.1c-0.1,0.4-0.3,0.7-0.6,1c-0.3-0.5-0.5-1.1-0.7-1.7C20.9,41.5,21.3,41.7,21.7,42.1z"/>
	<path fill="#C9C7B2" d="M64.7,42c-0.1,0.2-0.1,0.4-0.2,0.5c-0.3-0.3-0.5-0.7-0.4-1C64.3,41.5,64.8,41.5,64.7,42z"/>
	<path fill="#C9C7B2" d="M45,42.7c0,0.5-0.5,0.8-0.9,0.8c-1.1,0.2-2.3,0.4-3.4,0.1c-0.1-0.3,0.1-0.6,0.2-0.8
		c0.9-0.5,1.9-0.6,2.9-0.8L45,42.7z"/>
	<path fill="#C9C7B2" d="M65.2,46.3c-1.4-0.4-2.7-1.7-2.8-3.2c0-0.4,0.1-0.8,0.4-1l0.2,0L65.2,46.3z"/>
	<path fill="#C9C7B2" d="M59.7,42.9c2.4,2.4,4.8,4.5,7.1,6.9c-2.5-2.1-5-4.6-7.4-6.8l-0.6-0.1l0.7-0.6L59.7,42.9z"/>
	<path fill="#C9C7B2" d="M55,43.4l0.3,0.4c0.1,2.5,0.9,4.8,0.6,7.2c-2.5,0.5-5.2-0.1-7.3-1.4c-1.4-1.3-2.6-2.8-2.9-4.5
		c-0.1-0.4,0.4-0.5,0.5-0.8l0.6-0.8c1.6,0.1,3.3-0.3,4.7-0.9C52.8,42.6,53.9,43,55,43.4z"/>
	<path fill="#BA8750" d="M46.4,43.1c0,0.5-0.4,0.9-0.8,1.1c-0.1,0-0.3,0.1-0.4,0c-0.1-0.6,0.3-1.2,0.7-1.5
		C46.1,42.8,46.3,42.9,46.4,43.1z"/>
	<path fill="#C9C7B2" d="M62,43.5l0.3,1c-0.5-0.3-0.9-0.7-1.3-1.1c0.1-0.3,0.3-0.3,0.5-0.3C61.9,42.9,62,43.3,62,43.5z"/>
	<path d="M30.3,44c0.3,0.5,0.3,1.2,0.1,1.7c-0.3,0.5-0.8,0.9-1.3,1c-0.5,0-1.2-0.1-1.4-0.6c-0.4-0.5-0.6-1.1-0.4-1.7
		c0.2-0.6,0.8-1,1.4-1.1C29.3,43.4,29.9,43.5,30.3,44z"/>
	<path fill="#BCA64D" d="M81,44.5l0,0.9c-0.6,0.1-0.2-0.7-0.5-1c-0.2-0.4-0.7-0.5-1.2-0.4c-1.1,0.9-0.5,3.1-2.4,3.3
		c-0.5,0-1.1-0.3-1.3-0.8l0-1.1h0.3c0,0.5,0,1.3,0.7,1.4c0.5,0.1,0.9-0.3,1.1-0.7l0.9-2.3c0.2-0.3,0.5-0.3,0.8-0.4
		C80.1,43.4,80.8,43.8,81,44.5z"/>
	<path fill="#0054A6" d="M25.5,50.6c0.4,0.7,1.1,1.9,2.1,1.9c1.9,0.2,4.1,0.3,6,0.5l4.9,0.7c0.2,1.2,0,2.2,0,3.3l-0.3-0.1l-1.8-1.6
		c0.1-0.5,0.3-1-0.3-1.4c-0.3-0.4-0.8-0.2-1.2-0.4c-0.5,0-0.9,0.4-1.3,0.8c-1.1,0.2-2.2,0.7-3,1.5l0,0.5c-1,0.6-2.2,1.3-2.7,2.4
		c0,0.6,0.7,1,0.9,1.4c0.7-0.2,0.8,0.6,1.4,0.7c0.2-0.3,0.1-0.8,0-1.2c0.5-0.6,1.3-0.8,2-0.9l0.4,0.2l1,3.3
		c-0.1,0.5-0.7,0.5-1.1,0.7c-0.4,0.1-0.6-0.3-0.8-0.6c0.1-0.2-0.1-0.3-0.2-0.3c-0.2-0.1-0.3,0.2-0.4,0.3c0.1,0.7-0.2,1.5,0.2,2
		c1.2,0.8,2.7,0.2,4,0v0.2c-2.5,1.7-5.2,3-7.7,4.5l-0.2,0c-1.8-1.4-3.3-4.7-5.9-3.2l-0.9,1c-2.9-7.1-1.9-17.1,1.9-23.5
		C22.1,46.3,23.3,49.1,25.5,50.6z"/>
	<path fill="#0054A6" d="M29.9,44.6c0.2,0.3,0.1,0.8-0.1,1.1c-0.3,0.4-0.7,0.4-1.1,0.5c-0.4-0.2-0.8-0.4-0.9-0.8
		c-0.1-0.5,0.1-1.1,0.7-1.3C29,43.7,29.6,44.2,29.9,44.6z"/>
	<path fill="#C9C7B2" d="M44.4,44c0.2,0.7-0.8,0.7-1.2,1c-1,0.3-2,0.6-3.1,0.8c0-0.6,0.1-1.3,0.4-1.7C41.8,44.3,43,44,44.4,44z"/>
	<path d="M54.5,47c0.1,0.1,0,0.2,0,0.3c-2.3-0.2-4.4-1.3-6.4-2.5l0.1-0.3C50.3,45.4,52.3,46.5,54.5,47z"/>
	<path fill="#C9C7B2" d="M80.1,45.1c-0.1,0.2-0.2,0.6,0.2,0.6c0.3,0.1,0.8,0.4,1.1,0.2c0.2,0.4,0.4,0.9,0.4,1.5l-0.6,0.2
		c-0.1,0.4,0.3,0.8,0.2,1.2c-1.4,0.5-2.9,0.8-4.4,1.1c-0.3-0.6-0.5-1.4-0.7-2.1c0.4-0.1,1,0.2,1.5-0.1c1-0.8,1-2,1.7-3
		C79.6,44.1,80.3,44.6,80.1,45.1z"/>
	<path fill="#C9C7B2" d="M19.7,46.1c-0.6-0.2-1.1-0.4-1.7-0.7c0.7-0.4,1.5-0.6,2.3-0.9l0.1,0.1L19.7,46.1z"/>
	<path d="M54.5,45.4c-1-0.1-1.9-0.4-2.9-0.6l0-0.3l3,0.6L54.5,45.4z"/>
	<path fill="#C9C7B2" d="M63.9,47.8c-1.5,0.3-2.9-0.8-3.7-2.1c-0.2-0.3-0.3-0.9-0.1-1.2C61.5,45.5,62.6,46.7,63.9,47.8z"/>
	<path fill="#DA2128" d="M47,48.7c1.4,1.6,3.4,2.6,5.5,3c0,1.2-0.4,2.4-0.7,3.5c-1.4,1.1-3,1.9-4.9,1.7c-1.2-0.3-2.4-1-3.2-2
		c-0.3-2.2,0.1-4.7-0.4-6.8l0-1.5l1.8-1.5C45.5,46.3,46,47.7,47,48.7z"/>
	<path fill="#C9C7B2" d="M43.4,45.5c-1,1.1-2.3,2.4-3.6,3l0.2-2.1c1.1-0.5,2.3-0.7,3.5-1.1V45.5z"/>
	<path fill="#C9C7B2" d="M19.2,47.4c-0.1,0.6-0.3,1.2-0.5,1.8c-1.7-0.3-3.4-0.8-5.1-1.3c0.1-0.8,0.4-1.7,0.8-2.5
		C16,46,17.6,46.5,19.2,47.4z"/>
	<path d="M53,49.3c0,0.1-0.1,0.1-0.2,0.2c-1.9-0.9-3.7-2.3-5.3-3.7l0.2-0.3C49.4,46.8,51.2,48.1,53,49.3z"/>
	<path fill="#0054A6" d="M67.2,47.4c-0.3-0.2-0.5-0.7-0.6-1.1c0.1-0.1,0.3-0.1,0.4,0.1C67,46.7,67.3,47,67.2,47.4z"/>
	<path fill="#0054A6" d="M64.7,46.7c-0.2,0.1-0.3-0.2-0.4-0.3C64.4,46.5,64.7,46.5,64.7,46.7z"/>
	<path fill="#0054A6" d="M66.5,48.6L66.5,48.6c-0.5-0.1-0.8-0.6-1.2-1c-0.1-0.2-0.2-0.4-0.1-0.6C66,47.2,66.1,48,66.5,48.6z"/>
	<path fill="#DA2128" d="M42.5,47.2c0.1,1.9-0.4,3.6-1,5.3h-0.1c-0.5-0.7-1-1.4-1.6-2c0.3-0.4-0.2-0.8,0.2-1.1
		C40.8,48.7,41.6,47.9,42.5,47.2z"/>
	<path fill="#BCA64D" d="M82,48c0.3,1,0.6,2.1,0.7,3.2c-0.1,0.1-0.3,0-0.3-0.2c-0.1-0.3-0.1-0.8-0.3-1c-1.6,0.3-3.2,0.8-4.8,1
		c-0.1-0.2-0.2-0.4-0.1-0.6l4.7-1.1c0.1-0.4-0.2-0.8-0.2-1.3H82z"/>
	<path fill="#BCA64D" d="M18.4,49.8c0,0.2,0,0.5-0.2,0.5l-4.9-1.2c-0.1-0.2-0.1-0.5,0-0.7C15.1,48.8,16.8,49.2,18.4,49.8z"/>
	<path fill="#FFEAB5" d="M26.1,49.3c0.2,0.6,0.1,1.2,0.5,1.7l0.2,0c0-0.5-0.3-1.1-0.2-1.6c0.3,0.5,0.1,1.4,0.7,1.7
		c0.1-0.4-0.3-0.9-0.1-1.4c0.3,0.4,0.3,1,0.6,1.3c0.1-0.4-0.2-0.8-0.1-1.3c0.4,0.5,0.1,1.4,0.9,1.6c3.2-0.4,6.6-0.7,9.9-0.6
		c0.2,0.3,0.6,0.1,0.8,0.3c0.7,0.6,1.2,1.4,1.6,2.3c-3.5,0.1-6.8-0.8-10.2-1.1c-1.4-0.2-3.1,0.3-4.2-0.7c-0.3-0.7-0.9-1.4-0.5-2.2
		L26.1,49.3z"/>
	<path fill="#C9C7B2" d="M18.2,50.9l-0.3,1.6c-1.7,0-3.5-0.3-5.2-0.6c0-0.7,0.1-1.6,0.4-2.2C14.8,49.9,16.5,50.4,18.2,50.9z"/>
	<path fill="#BA8750" d="M42.8,53.7c0.2,0.5,0.3,1.3,0,1.8c-0.8,0.4-1.8-0.1-2.5,0.4c-0.7,0.6-1,1.4-1.1,2.2h-0.1l0-4.3
		c0.9-0.3,2.3,0.7,2.8-0.6c0.6-1,0.6-2.2,0.8-3.4C42.9,51,42.7,52.4,42.8,53.7z"/>
	<path fill="#FFEAB5" d="M68.7,50.4c-0.3,0.3-0.7,0.7-1.2,0.8C67.7,50.7,68.3,50.5,68.7,50.4L68.7,50.4z"/>
	<path fill="#FFEAB5" d="M67.3,50.5c-0.3,0.3-0.3,0.6-0.2,1c0.3,0.3,0.4,0.7,0.6,1c-3.8,0.9-7.8,1.4-11.7,1.9
		c-0.5,0-1.1,0.1-1.5-0.3l-0.1-0.3l2-2.3c2.4-0.3,5.3-0.3,7.7,0c1.2,0.4,2.3-0.2,3-1H67.3z"/>
	<path fill="#C9C7B2" d="M82.8,51.8c0.3,1.3,0.5,2.6,0.4,4l-0.3-0.1c-1.8-1-3.6-2.1-5.4-3.2l-0.2-0.9c1.4-0.4,3-0.8,4.4-1
		c0.3,0.4,0.1,0.9,0.4,1.3C82.4,51.9,82.6,51.8,82.8,51.8z"/>
	<path fill="#FFEAB5" d="M69.1,50.8c-0.1,0.5-0.8,0.8-1.3,0.8l1.1-0.8H69.1z"/>
	<path fill="#FFEAB5" d="M69.5,51.2c-0.3,0.6-0.9,0.7-1.4,1l0,0C68.4,51.7,69,51.4,69.5,51.2z"/>
	<path fill="#FFEAB5" d="M69.7,51.6c0.1,0.6-0.7,0.7-1,0.9h-0.3C68.8,52.2,69.3,51.9,69.7,51.6z"/>
	<path d="M24.1,51.7c0.3,1,0.9,1.9,1.4,2.8l0.2,0.1c1.2-0.1,2.3-0.4,3.5-0.4c-0.6,1.2-1.5,2.4-2.2,3.7c0.1,1.5,0.1,3,0.4,4.3
		c-0.9-0.7-2-1.6-2.9-2.4c-1.4,0.2-2.5,1-3.9,1.2c0.4-1,0.8-2,1.3-3l-0.1-0.3c-0.7-0.8-1.5-1.6-2.1-2.5l3.1-0.4l1-3
		C23.8,51.7,23.9,51.6,24.1,51.7z"/>
	<path fill="#DA2128" d="M55.5,51.7c-0.3,0.5-0.8,0.9-1.3,1.3l-0.5-1.2C54.3,51.6,55,51.7,55.5,51.7z"/>
	<path fill="#BCA64D" d="M17.8,53.2c-1.2,2-3.1,3.3-4.3,5.1c1.4,0.3,2.7,0,4,0.1c0.1,0,0.1,0.1,0.1,0.2c-1.8,0-3.6,0.1-5.3,0v-0.4
		l4.5-4.9l-0.3-0.2l-3.8-0.5c-0.1,0-0.2-0.2,0-0.3C14.4,52.6,16.1,52.8,17.8,53.2z"/>
	<path fill="#BA8750" d="M54.8,55l0.7,0.1c0,0.8,0.1,1.6-0.1,2.3c-0.3-0.8-1.3-1.3-2.1-1.4c-0.1,0.1-0.3,0.2-0.4,0.1l-0.5-0.6
		c0.2-1,0.3-2.1,0.8-3C53.8,53.2,53.5,54.8,54.8,55z"/>
	<path fill="#C9C7B2" d="M74.2,56.5c0.3,0.1,0.4-0.2,0.6-0.4c0.3,0.5,0.8,1.2,0.8,1.8c-0.6-0.2-1.2-0.4-1.7-0.8
		c0.1-0.2,0.4-0.5,0.2-0.7l-4.2-3.8C71.3,53.8,72.8,55.3,74.2,56.5z"/>
	<path fill="#BCA64D" d="M25.3,55.2l2.8-0.3c-0.4,1-1.2,1.8-1.7,2.8c0.1,1.1,0.2,2.3,0.3,3.4c-0.8-0.3-1.6-1.2-2.3-1.9l-3,1.2
		l-0.1-0.1l1-2.6l-1.8-2c0.8-0.3,1.7-0.2,2.5-0.4c0.3-0.8,0.4-1.6,0.8-2.4h0.1L25.3,55.2z"/>
	<path fill="#C9C7B2" d="M69.5,52.9c1,1.8,2,3.7,3,5.5c0.2-0.1,0.3-0.2,0.5-0.2c0.2,0.6,0.4,1.1,0.4,1.8c-0.6-0.2-1.1-0.8-1.6-1.3
		l0.4-0.3C71.3,56.6,70.2,54.9,69.5,52.9L69.5,52.9z"/>
	<path fill="#C9C7B2" d="M15.8,53.8c-1.1,1.2-2.3,2.5-3.5,3.6c-0.2-1-0.1-2.2,0-3.3c0.1-0.3,0-0.8,0.2-1l3.3,0.5L15.8,53.8z"/>
	<path fill="#C9C7B2" d="M68.9,53.2c0.5,1.9,0.8,3.9,1.2,5.9c0.3,0,0.6,0,0.5,0.4l-0.2,1.4c-0.3-0.4-0.7-0.9-0.8-1.5
		c0.2,0,0.4,0,0.4-0.2c-0.6-1.9-0.8-4-1.2-6H68.9z"/>
	<path fill="#0054A6" d="M68.6,54.5l0.8,4.1c-0.2,0.3-0.4-0.2-0.6,0.1L68.7,59c0.5,1,1,2,1.8,2.9c0.3,0.1,0.3-0.3,0.4-0.4
		c0.2-0.7,0-1.7,0.5-2.3V59c1,0.5,1.6,1.7,2.7,2l0.2-0.2l-0.7-3.2l2.9,0.9c-0.1,4.8-1.5,9.2-3.7,13.1c-0.2-0.7-0.8,0-1.2,0
		c-0.2,0.2-0.4,0.3-0.7,0.4c-0.1-0.3,0-0.7-0.3-0.8c-0.8,0-1.6,0.4-2.3,0.8c-3.1-2.3-6.4-4.4-9.4-6.8v-0.2c1.1,0.5,2.4,1.1,3.7,0.9
		c0.9-0.6,0.7-1.9,0.5-2.7C62.5,63,62.5,64,62,64.1c-0.4,0-0.8-0.3-1-0.7c0.1-1.2,0.5-2.3,1.5-3c0.7-0.2,1.3,0.4,1.8,0.7
		c0.1,0.5-0.7,1-0.1,1.3c0.7-0.1,1-0.9,1.8-0.6c0.4-0.3,0.8-0.7,0.9-1.2c-0.6-1.1-1.6-2-2.5-2.8c0.4-1.2-1.1-1.5-1.7-2
		c-0.6-0.4-1.7,0-1.9-1l-0.5-0.4c2.6-0.6,5.3-1,8-1.2L68.6,54.5z"/>
	<path fill="#BCA64D" d="M83.2,56.6c-1.7,1.3-3.5,2.4-5.3,3.5c0-0.3-0.2-0.9,0.2-1.1c0.3-0.3,1-0.4,1.1-0.9c-0.5-1.6,1-4.2-1.4-4.6
		l0-0.3C79.5,54.4,81.4,55.4,83.2,56.6z"/>
	<path fill="#BCA64D" d="M36,54.7c0.1,0.4-0.2,0.7-0.4,1l0,7.5c0,0.4-0.4,0.7-0.8,0.7c-0.9,0.2-2.2,0.6-3-0.1l0-0.2
		c0.9-0.2,2-0.1,2.5-1.1c-0.2-1.3-0.8-2.5-1.1-3.7c-0.3-0.5-0.9-0.5-1.4-0.4c-0.9,0.2-1.6,0.9-2.5,1.3c-0.4,0.1-0.7-0.4-0.8-0.7
		c0.1-0.7,0.8-1.1,1.3-1.4c0.4-0.6,1.8-0.6,1.4-1.6c0.7-0.7,1.6-1,2.5-1l0.5,0.5c0.5-0.3-0.3-1.2,0.6-1.4C35.3,54,35.8,54.3,36,54.7
		z"/>
	<path fill="#C9C7B2" d="M78.5,54.8l0,3.4c-0.2,0.1-0.3,0.4-0.6,0.3l-0.2-4.2C78,54.4,78.4,54.5,78.5,54.8z"/>
	<path fill="#0054A6" d="M73.3,56.7c-0.4,0.3-0.2,0.8-0.6,0.9c-0.8-0.9-1.4-2.1-1.8-3.2C71.7,55.1,72.6,55.9,73.3,56.7z"/>
	<path fill="#0054A6" d="M71.4,58.1c-0.3,0.3-0.7,0.2-1,0.5l-0.2-0.3c-0.3-1.2-0.6-2.5-0.6-3.8C70.3,55.7,70.8,56.9,71.4,58.1z"/>
	<path fill="#C9C7B2" d="M17.5,57.9c-0.9,0.3-2.1,0.2-3,0.1c0.9-1.3,2-2.4,3.1-3.4L17.5,57.9z"/>
	<path fill="#0054A6" d="M59.3,54.6c-0.4,0.5-0.7,1.1-0.5,1.8c-0.9,0.6-1.9,1.1-2.7,1.8c0-1.1-0.1-2.1,0-3.1
		C57.2,55,58.2,54.7,59.3,54.6z"/>
	<path d="M82.1,56.3c-0.8,0.7-1.7,1.2-2.6,1.7l-0.1-3.3C80.4,55.2,81.3,55.8,82.1,56.3z"/>
	<path fill="#BCA64D" d="M61.2,56l0.1,0.2l0.1-0.1c0.9,0.3,1.9,0.5,2.5,1.3c-0.4,1.2,1.2,1.3,1.6,2.1c0.3,0.5,1,0.9,0.7,1.5
		l-0.5,0.5c-1.1-0.7-2.2-1.8-3.6-1.6c-0.8,1.1-2,2.4-1.5,3.9c0.6,0.6,1.4,0.8,2.1,1.1c0.1,0.3-0.2,0.4-0.3,0.6
		c-1.2-0.2-2.4-0.5-3.4-1.1l-0.1-0.5l0.4-6.8c0.1-0.2,0.6,0,0.4-0.4c-0.3-0.3-0.4-0.8-0.2-1.2c0.2-0.4,0.6-0.4,0.9-0.2
		C60.8,55.5,60.7,56,61.2,56z"/>
	<path d="M34,55.9V56c-0.3,0-0.8-0.2-1.2-0.1c0.2,0.2,0.7,0,0.8,0.4c0.2,0.5-0.4,0.5-0.7,0.7c-0.3,0.2-0.8,0-0.8-0.4
		c-0.1-0.3,0.1-0.4,0.2-0.6c-0.3-0.1-0.5,0.4-0.8,0.1c-0.2-0.4,0.4-0.5,0.7-0.7C32.8,55.4,33.6,55.4,34,55.9z"/>
	<path fill="#C9C7B2" d="M81.3,56.3C81,56.7,80.5,57,80,57.2c-0.1-0.6-0.2-1.1,0-1.6C80.4,55.7,80.9,55.9,81.3,56.3z"/>
	<path fill="#DA2128" d="M48.5,57.3c1.1-0.4,2.1-0.8,3.1-1.4c-1.3,1.1-3,2-4.9,1.6c-1.1-0.3-2-1-3-1.7C45,56.7,46.7,57.8,48.5,57.3z
		"/>
	<path fill="#BCA64D" d="M37.1,56.6c-0.4,3.5,0.3,7.6-0.9,10.8l-0.1,0.1L36,67.3c-0.2-3.9,0.1-7.5,0.3-11.4
		C36.6,56.1,36.9,56.3,37.1,56.6z"/>
	<path fill="#DA2128" d="M44.1,57.7c1,1,2.1,2.2,3.8,2c2.5-0.2,3.2-3.8,5.9-3.1c0.5,0.2,0.8,0.6,0.9,1c1,4.7,2.4,9.3,3.2,14.1
		c-3.4,1-7.3,1.1-11.1,1.2c-3.8-0.2-7.5-0.6-10.9-1.7c-0.5-0.4,0-1.1,0.2-1.6c1.4-4.3,2.8-8.7,4.4-12.9
		C41.8,55.4,43.3,56.8,44.1,57.7z"/>
	<path fill="#DA2128" d="M51.9,56.2c-1.6,0.5-2.3,2.9-4.2,2.9c-1.8,0.1-3.1-1.6-4.2-2.9c1.3,1.2,2.8,1.8,4.6,1.8
		C49.6,57.7,50.8,56.9,51.9,56.2z"/>
	<path fill="#BCA64D" d="M33,56.6c0,0.1-0.1,0.1-0.2,0.2c-0.1,0-0.1-0.1-0.2-0.1C32.6,56.5,32.9,56.4,33,56.6z"/>
	<path d="M63.6,57.4c-0.2,0.2-0.4,0-0.6-0.1c0,0.3,0.4,0.6,0.1,0.9c-0.3,0.3-0.9,0.2-1.3,0c-0.2-0.1-0.5-0.2-0.5-0.5
		c0-0.3,0.4-0.4,0.7-0.6c-0.4-0.3-0.8,0.3-1.2,0.3c-0.2-0.3,0.3-0.4,0.4-0.6c0.7-0.3,1.7-0.3,2.3,0.2C63.6,57.3,63.7,57.4,63.6,57.4
		z"/>
	<path fill="#BCA64D" d="M38.5,58.1l-0.1,2.7c-0.3,1-0.7,1.9-1,2.9c-0.1-2.2,0-4.4,0.2-6.5C38,57.3,38.3,57.7,38.5,58.1z"/>
	<path fill="#BCA64D" d="M58.7,57.3c-0.2,3.8-0.3,7.6-0.6,11.4c-0.3-0.2-0.3-0.7-0.4-1c-0.4-1.8-0.1-3.6-0.1-5.5l0.2-4.5
		C58.1,57.5,58.4,57.2,58.7,57.3z"/>
	<path fill="#C9C7B2" d="M83.3,57.4c0.2,2-0.1,3.9-0.4,5.7c-1.8-0.1-3.5-0.6-5.2-0.9c-0.6-1.8,1.7-2.1,2.6-3.1
		C81.3,58.5,82.3,57.9,83.3,57.4z"/>
	<path fill="#BCA64D" d="M62.8,57.9v0.2c-0.3,0.1-0.7,0.1-0.9-0.2C61.9,57.6,62.6,57.6,62.8,57.9z"/>
	<path fill="#BCA64D" d="M57.2,58.2c0.2,2.1,0,4.2-0.1,6.2c-0.5-1.3-0.8-2.9-1-4.4c-0.1-0.6,0.1-1,0.5-1.4
		C56.7,58.5,56.9,58.2,57.2,58.2z"/>
	<path fill="#C9C7B2" d="M17.6,60c-1.5,1.5-2.9,3.4-4.6,4.7c-0.6-1.7-0.6-3.5-0.7-5.3c0.5-0.3,1.2,0,1.8-0.2l3.5,0L17.6,60z"/>
	<path fill="#BCA64D" d="M30.1,60.4c-0.2,0.1-0.4-0.2-0.4-0.3c0-0.2,0.2-0.2,0.3-0.2C30.1,59.9,30,60.2,30.1,60.4z"/>
	<path fill="#BCA64D" d="M17.8,62l-1.1,1.1l0.8,3.6c0.6,0.3,1.2,0.4,1.7,0.8v0.2c-2-0.8-4.2-1.3-6.1-2.1l4.4-4.5
		C17.8,61.2,17.8,61.6,17.8,62z"/>
	<path fill="#BCA64D" d="M64.9,61.6c-0.1,0.1-0.2,0.2-0.3,0.2l0.2-0.4C64.8,61.5,64.9,61.5,64.9,61.6z"/>
	<path d="M71.4,62.3l0,2.8c1.1,0.3,2.3,0.6,3.4,0.9l-0.2,0.2c-1.1,0.4-2.1,1-3.1,1.5c-0.2,1.1-0.2,2.5,0,3.6c-0.4,0.2-0.6-0.4-1-0.6
		l-1.6-1.7c-1.4,0-2.7,0.5-4,0.6c-0.3-0.2,0.1-0.4,0.2-0.6l1.6-1.9l-1-3.2c1,0,2,0.5,3,0.6c0.9-0.7,1.6-1.9,2.5-2.6L71.4,62.3z"/>
	<path fill="#BCA64D" d="M32.1,63.2c0,0.1-0.2,0.1-0.3,0.1c-0.2-0.1-0.2-0.4-0.1-0.6L32.1,63.2z"/>
	<path fill="#C9C7B2" d="M19,66.5c-0.3,0.1-0.6-0.1-0.9-0.1c-0.3-1-0.6-2.1-0.7-3.2l0.5-0.4L19,66.5z"/>
	<path fill="#BCA64D" d="M82.7,64.2l-5.5,4.2v0.1L81,70v0.1c-1.7-0.3-3.4-1.1-5-1.8v-0.2c1.8-1.6,3.7-2.8,5.6-4.3l0-0.1
		c-1.3-0.3-2.7-0.6-4.1-0.8l0.1-0.2l5.2,1L82.7,64.2z"/>
	<path fill="#BCA64D" d="M71.1,65.5c0.8,0.3,1.7,0.4,2.5,0.7c-0.7,1-3.1,0.6-2.5,2.5l0,1.7L69,68.5c-1,0.2-2,0.5-3.1,0.6
		c0.4-0.8,1.1-1.3,1.5-1.9c-0.3-0.9-0.8-1.7-0.9-2.6c0.9,0.1,1.7,0.4,2.6,0.6l1.7-2C71.1,63.9,71,64.8,71.1,65.5z"/>
	<path d="M16.6,63.8l0.6,2.7l-2.7-0.9c0.4-0.7,1.3-1.5,1.9-2.1C16.5,63.4,16.6,63.6,16.6,63.8z"/>
	<path fill="#C9C7B2" d="M80.5,64.1c-1.3,1.2-2.7,2.1-4.1,3.1l-0.1-0.1l1-3.6C78.5,63.6,79.5,63.8,80.5,64.1z"/>
	<path fill="#BCA64D" d="M62.9,64.4h-0.3c-0.1-0.1,0.1-0.3,0.2-0.3h0.1V64.4z"/>
	<path fill="#C9C7B2" d="M16.6,65.8c-0.5-0.1-1-0.2-1.3-0.5c0.3-0.3,0.6-0.8,1-0.9L16.6,65.8z"/>
	<path fill="#C9C7B2" d="M82.5,65.2c-0.2,1.5-0.8,2.9-1.2,4.3c-1.1-0.1-2-0.6-3-1v-0.2C79.7,67.2,81,66,82.5,65.2z"/>
	<path fill="#C9C7B2" d="M35.5,65.3c0.1,0.8,0.1,1.6,0,2.4c-0.8,0.4-1.7,0.7-2.8,0.8c-0.6-0.1-1.1-0.4-1.6-0.5
		C32.4,66.9,33.9,66.1,35.5,65.3z"/>
	<path fill="#C9C7B2" d="M67.9,72.5c-0.8,2.3-3.3,2.6-5.1,3.8c-1.3,0.9-2.6,1.8-3.8,3l-0.6,0C53.4,77,46.8,76,41.2,77.8
		c-2.1-0.9-4.2-1.9-6.4-2.8c-0.6-0.7-0.9-1.6-1.8-2.1l-1.8-0.5c-0.5-0.4-1.1-0.8-1.4-1.2c1.6,0,3.4-0.3,5.1-0.4
		c-0.3,0.4,0.2,0.8,0.6,1c2.1,0.7,4.5,1.1,6.8,1.4v0.1c-1.4,1-3,1.8-4.2,2.9l0.1,0.2c2.6-0.4,5.2-1,7.8-1.5c0.5-0.3,0.2-0.8,0.3-1.3
		l1.6-0.1c0.2,0.3-0.2,0.7,0,1.1l8.1,2.7c0.2-0.2,0-0.3-0.1-0.4c-1.3-1-2.4-2.3-3.6-3.5l0.2-0.2c2.2-0.1,4.2-0.5,6.2-1
		c1.6,0.2,3.3,0.5,5,0.5c0.3-0.1,0.8-0.3,0.8-0.7c0.1-0.6,0.1-1.3-0.2-1.8c-1-1-2.6-0.2-4-0.6c-0.6-0.3-1.3-0.3-1.8-0.8
		c0-1-0.1-2.1,0.2-3.1C61.9,68,64.9,70.3,67.9,72.5z"/>
	<path fill="#BA8750" d="M24.6,66.6c1.7,1.9,3.8,3.7,5.6,5.6l-1.7-0.5c-1.7-1.7-3-4.6-5.6-5c-0.4,0-0.8,0.4-0.9,0.8
		c-0.3,1.9,1.1,3.3,1.9,4.8L23.7,73c-1-1.5-1.9-3.1-2.6-4.8c0.1-0.8,0.2-1.7,1-2C23,65.8,23.9,66,24.6,66.6z"/>
	<path fill="#C9C7B2" d="M19.6,68.3c0.2,0.2,0.2,0.5,0.3,0.7c-1.6,0.8-3.2,1.5-4.8,2.1c-0.7-1.6-1.4-3.3-1.7-5
		C15.5,66.8,17.6,67.4,19.6,68.3z"/>
	<path fill="#FFEAB5" d="M24.4,67.7c-0.4,0.2-0.6,0.7-0.3,1.1l0.7,1l0,0.2c-0.5-0.3-0.7-1-1.3-1.3c-0.3,0.1-0.5,0.3-0.8,0.4
		c-0.2-0.6-0.2-1.3,0.2-1.8C23.3,67,23.9,67.4,24.4,67.7z"/>
	<path fill="#FFEAB5" d="M24.3,68.5c-0.1-0.3,0.2-0.3,0.3-0.4h0.1L24.3,68.5z"/>
	<path fill="#BCA64D" d="M35.9,68.3c0,0.6-0.2,1.1-0.5,1.6c-1.5,0.7-3.3,0.7-5,0.8c-0.2-0.1-0.4-0.2-0.5-0.4
		c0.1-0.6,0.1-1.3,0.6-1.6c1.3-0.4,2.3,0.7,3.5,0.1C34.6,68.6,35.2,68.2,35.9,68.3z"/>
	<path fill="#FFEAB5" d="M26.4,69.9c0.1,0.5,0.1,1.1-0.3,1.4c-0.5,0.7-1.4,0-1.9,0.5c-0.5-0.5-0.8-1.2-1.2-1.8
		c0.2-0.3,0.6-0.3,0.8-0.6c0.5,0,0.8,1.5,1.3,0.5c-0.2-0.3-0.4-0.6-0.5-0.9C25.3,67.8,26,69.4,26.4,69.9z"/>
	<path fill="#C9C7B2" d="M29.6,68.7c0,0.7-0.3,1.3-0.2,2c-0.4-0.2-1-0.8-1.2-1.2C28.6,69.1,29.1,69,29.6,68.7z"/>
	<path fill="#C9C7B2" d="M80.7,70.8c-0.3,0.7-0.4,1.5-0.9,1.9c-0.9-0.9-0.7,0.9-1.5,0.6c-1.2-0.7-2.5-1.2-3.6-2l1-2.3
		C77.5,69.4,79.1,70,80.7,70.8z"/>
	<path fill="#FFEAB5" d="M23.5,69c-0.2,0.1-0.6,0.4-0.8,0.4C23,69.3,23.2,68.9,23.5,69z"/>
	<path fill="#BCA64D" d="M19.2,76.5L19.2,76.5l3.6-2.1l0.1,0.2c-1.4,1-2.9,2.1-4.5,2.9L18.1,77c0.3-2.2,0.5-4.4,0.9-6.5
		c-1.2,0.3-2.4,1-3.6,1.4l-0.1-0.1l0.6-0.4c1.4-0.6,2.9-1.3,4.3-1.7L19.2,76.5z"/>
	<path fill="#BCA64D" d="M58.9,69.7c1.3,0.7,3,0.7,4.5,0.5c0.6,0,0.7,0.5,0.8,0.9c0,0.4,0.1,0.8-0.3,1c-1.9,0.2-3.7,0-5.2-0.8
		c-0.3-0.5-0.4-1.1-0.4-1.7C58.5,69.6,58.6,70,58.9,69.7z"/>
	<path d="M25.7,70.4c-0.2,0.3-0.5,0.6-0.8,0.7c-0.1-0.4,0.5-0.5,0.7-0.8C25.6,70.2,25.6,70.3,25.7,70.4z"/>
	<path fill="#FFEAB5" d="M28.6,72.2c1.5,0.8,3.7,0.4,5,1.7c0.3,0.9,1.1,1.8,2.1,2c2,0.9,4.2,1.4,6,2.8c0.2,0.1,0.3-0.1,0.3-0.2
		l-0.1-0.3c2.9-1,6.4-1,9.5-0.5c3,0.4,5.7,1.6,8.4,2.7l0.7-0.1c2.1-1.9,4.3-3.3,6.9-4c2.1-0.8,2.6-3.4,4.7-4.2c0.3,0.3,0,0.7-0.1,1
		c-3.1,4.8-7.4,8.4-12.4,10.7c-4.1,0-8.2-0.3-12.1-0.9c-0.4-0.1-0.8-0.2-1.1-0.4c-0.1-0.4-0.1-0.9-0.4-1.2l-0.2,0.2
		c0.3,0.9,0.1,2-0.4,2.7c-0.1,0.1,0.1,0.1,0.1,0.2c0.6-0.1,0.6-0.8,0.9-1.1c4.1,0.3,7.8,1,12,1c-4.9,2-11.3,2.7-16.7,1.3
		c-3.1-2.3-6-5.1-8.4-8.1c-1.1-0.9-0.4-2.7-1.7-3.5c-1.7-0.8-3.4-1.4-5.1-2c0-0.4,0.5-0.8,0.5-1.3C27.5,71.1,27.8,71.9,28.6,72.2z"
		/>
	<path fill="#C9C7B2" d="M22.4,73.8L22.3,74l-2.5,1.6l-0.1-0.3c0.3-1.5,0.4-3.1,0.8-4.6C21.2,71.6,21.7,72.8,22.4,73.8z"/>
	<path fill="#C9C7B2" d="M18.3,71.3c-0.1,1.6-0.4,3.3-0.7,4.8c-0.9-1.1-1.5-2.4-2-3.7C16.4,71.9,17.4,71.6,18.3,71.3z"/>
	<path fill="#BCA64D" d="M78.6,74c0.5-0.1,0.5-1.5,1-0.7c-0.5,0.8-0.8,1.8-1.4,2.5c-0.1,0-0.2-0.1-0.2-0.2c0-0.5,0.9-1,0.2-1.3
		l-4-2.1l0.2-0.5C75.9,72.3,77.2,73.3,78.6,74z"/>
	<path fill="#FFEAB5" d="M70.2,72.1c-0.3,1.6-1.6,2.7-2.9,3.5c-2.6,0.8-5,2.3-7.1,4.2c-0.2,0-0.5,0.1-0.7-0.1c2-2.1,4.2-3.5,6.9-4.5
		c1.7-0.7,1.7-3,3.7-3.3L70.2,72.1z"/>
	<path fill="#BA8750" d="M31.5,74.5c0.6,0.5,0.3,1.4,0.6,2c2,3.3,5.3,6,8.2,8.7c-6.3-1.6-12.1-5.6-16-11.3c-0.1-0.4-0.2-1,0.1-1.4
		c0.7-0.4,1.6,0,2.4,0.1C28.4,73.2,30,73.7,31.5,74.5z"/>
	<path fill="#C9C7B2" d="M77.9,74.8c-0.1,0.4-0.6,0.8-0.4,1.2c0.2,0.1,0.5,0.2,0.5,0.4L77,77.8l-0.3,0l-4.1-3
		c0.3-0.7,0.8-1.4,1.2-2.1C75.3,73.2,76.5,74.1,77.9,74.8z"/>
	<path fill="#DA2128" d="M45.8,74.4c-1.9,0.3-3.7,0.8-5.6,1.1c0.9-0.8,2.2-1.4,3.3-2.2l2.3,0.2L45.8,74.4z"/>
	<path fill="#DA2128" d="M54.2,76.1c-1.9-0.4-3.6-1.3-5.5-1.8c-0.2-0.2,0-0.5,0-0.7l0.2-0.1l2.4-0.1C52.3,74.2,53.2,75,54.2,76.1z"
		/>
	<path fill="#C9C7B2" d="M24.5,76.8c-0.8-0.3-1.5,0.1-2,0.6l-2.5,2l-0.3,0L18.8,78c1.4-1.1,2.9-2,4.4-3
		C23.7,75.6,24.2,76.1,24.5,76.8z"/>
	<path fill="#BCA64D" d="M76.5,78.4c-0.3,0.8-0.9,1.4-1.6,2c0.1-0.6,0.6-1,0.9-1.5l-1.5-1.1c-0.5,0.2-0.7,1.3-1.3,0.8l0.7-1.1
		c-0.3-0.6-1.1-0.8-1.5-1.3h-0.2l-1,1.2c-0.1-0.1-0.3,0-0.3-0.2c0.3-0.7,0.9-1.3,1.4-1.9C73.7,76.2,75,77.3,76.5,78.4z"/>
	<path fill="#C9C7B2" d="M73.1,77.6l-0.7,1l0.9,0.8c0.4-0.2,0.6-0.7,0.9-1c0.3,0.1,0.6,0.3,0.8,0.5c-0.2,0.5-0.7,1-1,1.5l0.4,0.4
		c-0.4,0.7-0.9,1.1-1.5,1.8c-1.4-1.2-2.6-2.4-3.7-3.8c0.2-0.4,0.7-0.8,1-1.2l0.7,0.4l1.1-1.2C72.5,77,73.1,77.2,73.1,77.6z"/>
	<path fill="#BCA64D" d="M26.1,78.7c0.9,2-2,3.2-2.9,4.7c-0.2-0.1-0.4-0.4-0.6-0.6l2.9-3.1c0.2-0.4,0-0.9-0.2-1.3
		c-0.3-0.4-0.7-0.8-1.2-0.8l-0.9,0.2c-1,0.7-1.9,1.5-2.8,2.3c-0.1,0.1-0.2-0.1-0.3-0.2l0-0.2c1.6-0.7,2.7-3.3,4.7-2.3
		C25.4,77.7,25.9,78.2,26.1,78.7z"/>
	<path fill="#C9C7B2" d="M25.1,78.9L25,79.6c-0.7,0.9-1.7,1.9-2.6,2.7c-0.6-0.5-1.3-1.2-1.7-1.9c0.8-0.9,1.9-1.7,2.9-2.5
		C24.3,77.8,24.9,78.3,25.1,78.9z"/>
	<path fill="#C9C7B2" d="M35.9,85.3c-0.1,0.3-0.6,0-0.8,0.2c-1.2,0.7-2,1.9-1.8,3.3c0.1,0.5,0.4,0.9,0.6,1.4
		c-3.6-1.5-7.2-3.4-10.1-6.3c0.8-1.8,3.3-2.6,3-4.7C29.5,81.7,32.6,83.9,35.9,85.3z"/>
	<path fill="#BCA64D" d="M72.6,83c-0.6,0.7-1.3,1.7-2.4,1.5c-0.6-0.1-1.3-0.4-1.5-1.1c-0.3-0.6-0.3-1.5,0-2.1c-0.6-0.4-1.2,0-1.8,0
		c-0.1-0.1-0.1-0.2,0-0.3c0.6-0.4,1.4-0.5,2.1-0.2c0.1,0,0.2-0.1,0.2-0.2c-0.2-0.4-0.9-0.8-0.6-1.2c0.2-0.5,0.5-0.1,0.7,0.1L72.6,83
		z"/>
	<path fill="#C9C7B2" d="M68.1,80.2L68.1,80.2l-0.4,0.2c-0.1-0.1,0.1-0.2,0.2-0.3C68,80,68,80.1,68.1,80.2z"/>
	<path d="M71.7,83.5c-0.2,0.3-0.6,0.5-0.9,0.7c-0.5-0.1-1.2-0.1-1.6-0.5c-0.3-0.5-0.6-1.2-0.4-1.8c0.1-0.3,0.4-0.6,0.7-0.8
		C70.3,81.7,71,82.7,71.7,83.5z"/>
	<path fill="#C9C7B2" d="M66.9,82c0.3-0.3,0.7-0.4,1.1-0.3c0.1,0.9,0,1.9,0.7,2.6c0.4,0.4,1,0.7,1.6,0.8l0,0.2
		c-3.5,2.8-7.2,4.9-11.3,6.2c0.7-0.9,0.8-2.3,0.3-3.4c-0.3-0.8-1.2-1.4-2-1.7c0.8-0.4,1.9-0.7,2.8-1.2c2.1-1,4.2-2.2,6.1-3.6
		C66.4,81.5,66.6,81.8,66.9,82z"/>
	<path fill="#C9C7B2" d="M71.1,83.6c-0.4,0.2-1,0.2-1.4,0c-0.4-0.3-0.6-0.8-0.6-1.3c-0.1-0.2,0.1-0.5,0.3-0.6
		C70.1,82.2,70.8,82.8,71.1,83.6z"/>
	<path d="M30.5,83.1c0.4,0.5,0.7,1.1,0.6,1.8c0,0.6-0.4,1.2-1,1.5c-0.5,0.3-1.3,0.3-1.9,0.1c-0.6-0.3-1.2-0.8-1.3-1.5
		c0-0.7,0-1.3,0.5-1.8C28.2,82.3,29.7,82.4,30.5,83.1z"/>
	<path fill="#BCA64D" d="M30.3,83.4c0.4,0.4,0.7,1.1,0.5,1.7c-0.1,0.5-0.5,0.9-0.9,1.2c-0.7,0.3-1.5,0.1-2-0.5
		c-0.4-0.4-0.5-0.9-0.5-1.4c0-0.6,0.5-1,0.9-1.3C28.9,82.6,29.8,82.9,30.3,83.4z"/>
	<path d="M30.3,84.1c0.2,0.4,0.1,0.9-0.1,1.3c-0.3,0.4-0.7,0.7-1.3,0.7c-0.5-0.1-0.9-0.5-1.1-0.9c-0.2-0.5,0-1.2,0.4-1.5
		C28.8,83,30,83.3,30.3,84.1z"/>
	<path fill="#C9C7B2" d="M30,84.3c0.1,0.6-0.2,1.1-0.6,1.3c-0.5,0.2-1-0.1-1.2-0.5c-0.2-0.4-0.1-0.8,0.2-1.1
		C28.8,83.4,29.7,83.6,30,84.3z"/>
	<path d="M65.7,84.6c0.5,0.5,0.7,1.1,0.6,1.9c-0.2,0.7-0.7,1.4-1.4,1.7c-0.8,0.3-1.7,0.1-2.4-0.5c-0.4-0.4-0.6-0.9-0.6-1.5
		c0-0.6,0.2-1.1,0.6-1.5C63.5,83.8,64.9,83.7,65.7,84.6z"/>
	<path fill="#BCA64D" d="M65.5,84.7c0.4,0.4,0.6,1,0.6,1.5c-0.1,0.5-0.3,0.9-0.6,1.3c-0.7,0.6-1.6,0.3-2.4,0.1
		c-0.5-0.4-0.6-0.9-0.7-1.4c0-0.6,0.3-1.3,0.7-1.6C63.7,84,64.8,84.2,65.5,84.7z"/>
	<path d="M65.5,85.6c0.2,0.4,0.1,0.9-0.2,1.3c-0.4,0.5-1.2,0.7-1.8,0.4c-0.5-0.2-0.6-0.7-0.7-1.1c0-0.6,0.3-1,0.8-1.3
		C64.3,84.6,65.2,84.9,65.5,85.6z"/>
	<path fill="#C9C7B2" d="M65.2,85.7c0.1,0.4,0,0.8-0.3,1.1c-0.4,0.3-0.9,0.3-1.3,0.1c-0.3-0.3-0.5-0.8-0.3-1.2
		c0.1-0.4,0.5-0.6,0.9-0.7C64.6,85,65,85.4,65.2,85.7z"/>
	<path fill="#BCA64D" d="M38.8,86.7c0.5,0.6,0.8,1.3,0.8,2c-0.1,0.8-0.5,1.4-1,2c-0.8,0.5-1.9,0.8-2.9,0.4c-1-0.3-1.8-1.4-1.9-2.4
		c-0.1-1.1,0.3-2.1,1.3-2.6C36.3,85.5,37.9,85.7,38.8,86.7z"/>
	<path d="M38.5,87.3c0.4,1,0.3,2.4-0.6,3.2c-0.6,0.6-1.5,0.6-2.3,0.3c-0.6-0.4-0.8-0.9-0.9-1.5c-0.1-0.8,0-1.5,0.5-2.1
		C36.1,86.2,38,85.7,38.5,87.3z"/>
	<path fill="#C9C7B2" d="M38.2,87.4c0.4,0.8,0.1,1.7-0.3,2.4c-0.5,0.6-1.1,1-1.9,0.8c-0.4-0.1-0.6-0.6-0.8-0.9
		c-0.1-1.1,0.2-2.3,1.2-2.8C37.2,86.4,37.9,86.7,38.2,87.4z"/>
	<path fill="#C9C7B2" d="M42.4,87.3c-0.3,0.5-0.7,1-0.5,1.6c0.2,1.2,1.2,1.9,1.6,2.9c0,0.2-0.2,0.3-0.3,0.3
		c-0.4,0.1-0.6-0.3-0.9-0.4c-0.3,0.3-0.8,0.4-0.8,0.8c-1.2-0.1-2.4-0.4-3.5-0.8v-0.1c1.1-0.5,2.3-1.4,2.2-2.8
		c-0.1-0.8-0.4-1.4-0.7-2.1L42.4,87.3z"/>
	<path fill="#BCA64D" d="M58.6,88.2c0.3,1.1,0.4,2.5-0.6,3.3c-0.7,0.8-2,0.9-3,0.6c-0.8-0.2-1.4-1-1.8-1.7c-0.3-0.7-0.3-1.4,0-2.1
		c0.5-1,1.6-1.5,2.7-1.6C57.1,86.7,58.1,87.2,58.6,88.2z"/>
	<path fill="#C9C7B2" d="M53.5,87.3c-0.7,1-1.3,2.5-0.5,3.6c0.3,0.7,1,1.3,1.6,1.6c-1.1,0.3-2.4,0.4-3.6,0.5c0-0.2,0-0.4-0.1-0.6
		c-0.5-0.1-1.1,0-1.6-0.1c-0.1-1.4-0.3-3.1-0.1-4.4c1.2-0.3,2.7-0.1,3.9-0.6C53.2,87.2,53.4,87.2,53.5,87.3z"/>
	<path d="M57.1,87.7c0.8,0.8,0.9,2.3,0.5,3.3c-0.3,0.6-0.8,0.7-1.4,0.9c-0.6,0-1.1-0.3-1.5-0.8c-0.5-0.6-0.7-1.4-0.6-2.2
		c0-0.6,0.3-1.1,0.8-1.5C55.6,87.1,56.5,87.3,57.1,87.7z"/>
	<path fill="#BCA64D" d="M44.6,88.1c0,0.1,0,0.2-0.2,0.3c-0.3-0.1-0.6-0.5-1-0.3c-1,1.5,1.7,2.2,1.6,3.7c-0.1,0.4-0.1,0.9-0.6,1.1
		c-0.5,0.3-1.2,0.1-1.8-0.1c-0.1-0.2-0.4-0.3-0.3-0.5c0.4-0.1,0.9,0.5,1.4,0.1c1-1.1-0.8-1.8-1.1-2.8c-0.3-0.6-0.3-1.4,0.1-1.9
		c0.3-0.4,0.9-0.3,1.4-0.1C44.2,87.7,44.3,87.9,44.6,88.1z"/>
	<path fill="#C9C7B2" d="M57,88.3c0.5,0.7,0.6,1.9,0.1,2.7c-0.3,0.3-0.6,0.5-1,0.6c-0.7-0.1-1.1-0.8-1.4-1.3c-0.3-0.6-0.3-1.4,0-2
		c0.2-0.4,0.6-0.5,1-0.6C56.3,87.6,56.7,87.8,57,88.3z"/>
	<path fill="#C9C7B2" d="M47.3,87.8c0.2,1.7,0.1,3.5,0.1,5.3L45,93c0.5-0.4,0.5-1.2,0.4-1.8c-0.4-1-1.6-1.6-1.7-2.7
		c0.4-0.3,0.6,0.3,0.9,0.3c0.2-0.2,0.5-0.4,0.7-0.6l-0.4-0.6L47.3,87.8z"/>
	<path fill="#BCA64D" d="M48.5,87.8c0.2,1.5,0.2,3.4,0.2,5c0.5,0.2,1.2,0,1.7,0.2l0,0.1l-2.3,0.1l-0.2-0.2c0-1.7-0.2-3.5,0-5.1
		C48.1,87.8,48.3,87.7,48.5,87.8z"/>
</g>
</svg>
